<?xml version="1.0" encoding="iso-8859-1"?>
<!-- Generator: Adobe Illustrator 19.0.0, SVG Export Plug-In . SVG Version: 6.00 Build 0)  -->
<svg version="1.1" id="Capa_1" xmlns="http://www.w3.org/2000/svg" xmlns:xlink="http://www.w3.org/1999/xlink" x="0px" y="0px"
	 viewBox="0 0 512 512" style="enable-background:new 0 0 512 512;" xml:space="preserve" fill="#fff">
<g>
	<g>
		<path d="M437.333,192h-32v-42.667C405.333,66.99,338.344,0,256,0S106.667,66.99,106.667,149.333V160
			c0,5.896,4.771,10.667,10.667,10.667H160c5.896,0,10.667-4.771,10.667-10.667v-10.667C170.667,102.281,208.948,64,256,64
			s85.333,38.281,85.333,85.333V192H74.667C68.771,192,64,196.771,64,202.667v266.667C64,492.865,83.135,512,106.667,512h298.667
			C428.865,512,448,492.865,448,469.333V202.667C448,196.771,443.229,192,437.333,192z M287.938,414.823
			c0.333,3.01-0.635,6.031-2.656,8.292c-2.021,2.26-4.917,3.552-7.948,3.552h-42.667c-3.031,0-5.927-1.292-7.948-3.552
			c-2.021-2.26-2.99-5.281-2.656-8.292l6.729-60.51c-10.927-7.948-17.458-20.521-17.458-34.313
			c0-23.531,19.135-42.667,42.667-42.667s42.667,19.135,42.667,42.667c0,13.792-6.531,26.365-17.458,34.313L287.938,414.823z"/>
	</g>
</g>
<g>
</g>
<g>
</g>
<g>
</g>
<g>
</g>
<g>
</g>
<g>
</g>
<g>
</g>
<g>
</g>
<g>
</g>
<g>
</g>
<g>
</g>
<g>
</g>
<g>
</g>
<g>
</g>
<g>
</g>
</svg>
