<svg id="Capa_1" enable-background="new 0 0 512 512" height="512" viewBox="0 0 512 512" width="512" xmlns="http://www.w3.org/2000/svg"><g><path d="m437.02 74.98c-48.353-48.351-112.64-74.98-181.02-74.98s-132.667 26.629-181.02 74.98c-48.351 48.353-74.98 112.64-74.98 181.02s26.629 132.667 74.98 181.02c48.353 48.351 112.64 74.98 181.02 74.98s132.667-26.629 181.02-74.98c48.351-48.353 74.98-112.64 74.98-181.02s-26.629-132.667-74.98-181.02zm-181.02 256.02c-41.421 0-75-33.579-75-75 0-41.422 33.579-75 75-75s75 33.578 75 75c0 41.421-33.579 75-75 75z" fill="#0a789b"/><path d="m256 0v181c41.421 0 75 33.578 75 75 0 41.421-33.579 75-75 75v181c68.38 0 132.667-26.629 181.02-74.98 48.351-48.353 74.98-112.64 74.98-181.02s-26.629-132.667-74.98-181.02c-48.353-48.351-112.64-74.98-181.02-74.98z" fill="#0a617d"/><path d="m256 146c-60.654 0-110 49.346-110 110s49.346 110 110 110 110-49.346 110-110-49.346-110-110-110zm0 150c-22.091 0-40-17.909-40-40 0-22.092 17.909-40 40-40s40 17.908 40 40c0 22.091-17.909 40-40 40z" fill="#9ee2f8"/><path d="m296 256c0 22.091-17.909 40-40 40v70c60.654 0 110-49.346 110-110s-49.346-110-110-110v70c22.091 0 40 17.908 40 40z" fill="#8cbcff"/><path d="m460.857 272.335c-7.931 100.38-88.308 180.698-188.713 188.537-8.708.68-16.144-6.229-16.144-14.964 0-7.87 6.089-14.337 13.935-14.956 85.63-6.758 154.168-75.246 161.005-160.854.62-7.764 6.983-13.81 14.772-13.905 8.805-.108 15.839 7.363 15.145 16.142z" fill="#08475e"/><path d="m51.128 239.857c7.843-100.47 88.259-180.886 188.73-188.73 8.707-.679 16.142 6.23 16.142 14.963 0 7.87-6.089 14.338-13.935 14.957-85.684 6.763-154.255 75.334-161.017 161.018-.619 7.846-7.087 13.935-14.958 13.935-8.733 0-15.642-7.435-14.962-16.143z" fill="#0a617d"/></g></svg>