<svg id="Capa_1" enable-background="new 0 0 512 512" height="512" viewBox="0 0 512 512" width="512" xmlns="http://www.w3.org/2000/svg" xmlns:xlink="http://www.w3.org/1999/xlink"><linearGradient id="lg1"><stop offset="0" stop-color="#560dff"/><stop offset="1" stop-color="#73ecff"/></linearGradient><linearGradient id="SVGID_1_" gradientUnits="userSpaceOnUse" x1="74.98" x2="437.019" xlink:href="#lg1" y1="437.019" y2="74.981"/><radialGradient id="SVGID_2_" cx="255.999" cy="256" gradientUnits="userSpaceOnUse" r="256"><stop offset="0" stop-color="#6b23ea"/><stop offset="1" stop-color="#3dcbcd" stop-opacity="0"/></radialGradient><linearGradient id="lg2"><stop offset="0" stop-color="#170794"/><stop offset="1" stop-color="#63bcf5"/></linearGradient><linearGradient id="SVGID_3_" gradientUnits="userSpaceOnUse" x1="14.061" x2="399.788" xlink:href="#lg2" y1="286.701" y2="-99.026"/><linearGradient id="SVGID_4_" gradientUnits="userSpaceOnUse" x1="239.869" x2="543.942" xlink:href="#lg2" y1="475.234" y2="171.161"/><linearGradient id="SVGID_5_" gradientUnits="userSpaceOnUse" x1="101.078" x2="471.791" xlink:href="#lg2" y1="403.545" y2="32.832"/><linearGradient id="SVGID_6_" gradientUnits="userSpaceOnUse" x1="92.578" x2="476.299" xlink:href="#lg2" y1="502.763" y2="119.042"/><linearGradient id="SVGID_7_" gradientUnits="userSpaceOnUse" x1="-13.406" x2="370.024" xlink:href="#lg2" y1="434.356" y2="50.925"/><linearGradient id="SVGID_8_" gradientUnits="userSpaceOnUse" x1="-18.556" x2="361.122" xlink:href="#lg2" y1="448.364" y2="68.686"/><linearGradient id="SVGID_9_" gradientUnits="userSpaceOnUse" x1="43.493" x2="426.54" xlink:href="#lg2" y1="405.218" y2="22.171"/><linearGradient id="SVGID_10_" gradientUnits="userSpaceOnUse" x1="96.277" x2="472.262" xlink:href="#lg2" y1="479.013" y2="103.027"/><linearGradient id="SVGID_11_" gradientUnits="userSpaceOnUse" x1="77.87" x2="462.348" xlink:href="#lg2" y1="487.319" y2="102.841"/><linearGradient id="SVGID_12_" gradientUnits="userSpaceOnUse" x1="149.913" x2="510.295" xlink:href="#lg2" y1="362.087" y2="1.706"/><linearGradient id="SVGID_13_" gradientUnits="userSpaceOnUse" x1="207.207" x2="416.297" xlink:href="#lg2" y1="349.892" y2="140.801"/><linearGradient id="SVGID_14_" gradientUnits="userSpaceOnUse" x1="102.803" x2="311.893" xlink:href="#lg2" y1="359.938" y2="150.847"/><linearGradient id="SVGID_15_" gradientUnits="userSpaceOnUse" x1="184.671" x2="393.654" xlink:href="#lg2" y1="292.952" y2="83.969"/><linearGradient id="SVGID_16_" gradientUnits="userSpaceOnUse" x1="161.91" x2="370.894" xlink:href="#lg2" y1="384.466" y2="175.483"/><linearGradient id="lg3"><stop offset="0" stop-color="#3ca1ff"/><stop offset=".1082" stop-color="#47affa"/><stop offset=".5685" stop-color="#74e9e7"/><stop offset=".79" stop-color="#85ffe0"/><stop offset=".881" stop-color="#9dffe6"/><stop offset="1" stop-color="#c2fff0"/></linearGradient><linearGradient id="SVGID_17_" gradientUnits="userSpaceOnUse" x1="168.869" x2="443.881" xlink:href="#lg3" y1="343.131" y2="68.12"/><linearGradient id="SVGID_18_" gradientUnits="userSpaceOnUse" x1="140.854" x2="348.3" xlink:href="#lg3" y1="371.147" y2="163.7"/><linearGradient id="SVGID_19_" gradientUnits="userSpaceOnUse" x1="210.817" x2="349.346" xlink:href="#lg3" y1="301.183" y2="162.654"/><linearGradient id="SVGID_20_" gradientUnits="userSpaceOnUse" x1="42.676" x2="464.209" xlink:href="#lg1" y1="469.325" y2="47.791"/><radialGradient id="SVGID_21_" cx="256" cy="256" gradientUnits="userSpaceOnUse" r="39.3"><stop offset="0" stop-color="#364aff" stop-opacity="0"/><stop offset=".258" stop-color="#3b46fd" stop-opacity=".258"/><stop offset=".5588" stop-color="#493cf7" stop-opacity=".559"/><stop offset=".8799" stop-color="#602bee" stop-opacity=".88"/><stop offset="1" stop-color="#6b23ea"/></radialGradient><g><circle cx="256" cy="256" fill="url(#SVGID_1_)" r="256"/><circle cx="256" cy="256" fill="url(#SVGID_2_)" r="256"/><path d="m55.1 256c-.016-.045 29.491 22.092 29.504 22.131-.198-41.677.163-83.354 1.084-125.032-19.225 30.39-30.602 65.47-30.588 102.901z" fill="url(#SVGID_3_)"/><path d="m218.702 418.852c12.527 12.719 24.971 25.412 37.298 38.048 82.258-.032 155.188-55.449 186.205-128.45-75.158 30.287-150.017 61.326-223.503 90.402z" fill="url(#SVGID_4_)"/><path d="m256 55.1c-70.521-.03-133.73 40.675-170.311 98-9.521 22.699-14.93 47.2-15.108 72.79-.073 10.239.697 20.288 2.241 30.11 61.074 55.378 123.209 113.048 183.221 169.571 4.973.384 9.995.569 15.063.554 71.045-.218 134.716-40.737 171.099-97.675 9.438-22.578 14.699-46.954 14.695-72.45.034 1.482-202.382-200.933-200.9-200.9z" fill="url(#SVGID_5_)"/><path d="m256 256h200.9c.012-35.69-10.326-69.234-27.953-98.625-35.656-.758-71.313-1.281-106.969-1.571.243-.161-65.861 100.119-65.978 100.196z" fill="url(#SVGID_6_)"/><path d="m55.1 256c-.011 35.689 10.325 69.233 27.953 98.625 30.563.65 61.125 1.127 91.687 1.433-33.935-33.688-68.116-67.249-101.924-100.058-5.905 0-11.811 0-17.716 0z" fill="url(#SVGID_7_)"/><path d="m72.816 256c4.847 30.928 17.406 59.642 35.469 84.524 22.183 5.209 44.338 10.401 66.456 15.534 26.754-33.082 54.006-66.57 81.259-100.058-61.061 0-122.123 0-183.184 0z" fill="url(#SVGID_8_)"/><path d="m428.947 157.374c-36.071-59.578-100.707-102.298-172.947-102.274v200.9c58.003-33.488 116.006-66.976 172.947-98.626z" fill="url(#SVGID_9_)"/><path d="m108.283 340.525c-8.431 4.736-16.842 9.438-25.23 14.1 36.069 59.579 100.708 102.301 172.947 102.275.001.001 0-31.33 0-31.331-48.599-27.968-98.049-56.688-147.717-85.044z" fill="url(#SVGID_10_)"/><path d="m256 256c-49.459 28.555-98.917 57.11-147.717 84.525 34.333 47.072 87.716 80.428 147.718 85.044 0 0 0-169.568-.001-169.569z" fill="url(#SVGID_11_)"/><path d="m256 147.35c-59.395.089-108.561 49.255-108.65 108.65-.005-.234 108.885 108.654 108.65 108.65 59.396-.088 108.561-49.255 108.65-108.65.005.234-108.884-108.655-108.65-108.65z" fill="url(#SVGID_12_)"/><path d="m256 256h108.65c.002-19.651-5.38-38.085-14.711-54.042-19.367-.12-38.734-.203-58.102-.248-11.903 18.068-23.87 36.179-35.837 54.29z" fill="url(#SVGID_13_)"/><path d="m147.35 256c-.002 19.651 5.38 38.085 14.711 54.042 16.6.103 33.201.178 49.801.226 14.661-18.046 29.399-36.157 44.138-54.268-36.217 0-72.433 0-108.65 0z" fill="url(#SVGID_14_)"/><path d="m349.939 201.958c-18.999-32.397-54.061-54.611-93.939-54.608v108.65c31.369-18.111 62.738-36.222 93.939-54.042z" fill="url(#SVGID_15_)"/><path d="m256 256c-31.369 18.111-62.738 36.222-93.939 54.042 18.998 32.397 54.061 54.612 93.939 54.608z" fill="url(#SVGID_16_)"/><path d="m333.9 256c-.033 42.798-35.102 77.868-77.9 77.9-42.798-.032-77.867-35.102-77.9-77.9.033-42.798 35.102-77.868 77.9-77.9 42.798.031 77.866 35.103 77.9 77.9z" fill="url(#SVGID_17_)"/><path d="m333.9 256c-.033 42.798-35.102 77.868-77.9 77.9-42.798-.032-77.867-35.102-77.9-77.9.033-42.798 35.102-77.868 77.9-77.9 42.798.031 77.866 35.103 77.9 77.9z" fill="url(#SVGID_18_)"/><circle cx="256" cy="256" fill="url(#SVGID_19_)" r="30.75"/><path d="m271.375 256c0 8.49-6.884 15.375-15.375 15.375-8.49 0-15.375-6.885-15.375-15.375 0-8.489 6.885-15.375 15.375-15.375 8.491 0 15.375 6.885 15.375 15.375z" fill="url(#SVGID_20_)"/><path d="m271.375 256c0 8.49-6.884 15.375-15.375 15.375-8.49 0-15.375-6.885-15.375-15.375 0-8.489 6.885-15.375 15.375-15.375 8.491 0 15.375 6.885 15.375 15.375z" fill="url(#SVGID_21_)"/></g></svg>