<svg height="512pt" viewBox="0 -15 512 512" width="512pt" xmlns="http://www.w3.org/2000/svg" fill="#fff"><path d="m40 145.273438c0 70.132812 68.546875 121.257812 134.835938 170.703124 10.414062 7.765626 21.183593 15.796876 31.40625 23.714844 8.734374 6.761719 10.332031 19.324219 3.570312 28.054688-3.941406 5.09375-9.851562 7.757812-15.828125 7.757812-4.277344 0-8.585937-1.363281-12.226563-4.1875-9.941406-7.695312-20.089843-15.265625-30.835937-23.277344-70.742187-52.765624-150.921875-112.566406-150.921875-202.765624 0-42.476563 13.945312-79.050782 40.332031-105.769532 25.152344-25.476562 59.839844-39.503906 97.667969-39.503906 66.136719 0 100.332031 34.03125 117.371094 62.578125.210937.351563.421875.707031.628906 1.0625.207031-.355469.417969-.710937.628906-1.0625 17.039063-28.546875 51.234375-62.578125 117.371094-62.578125 32.664062 0 62.652344 10.238281 86.714844 29.605469 24.738281 19.910156 41.335937 48.085937 48.003906 81.480469 2.160156 10.828124-4.867188 21.363281-15.699219 23.527343-10.835937 2.164063-21.367187-4.867187-23.527343-15.699219-9.570313-47.9375-47.050782-78.914062-95.492188-78.914062-37.519531 0-65.222656 14.113281-82.34375 41.953125-13.585938 22.097656-15.703125 45.097656-15.722656 45.328125-.800782 10.417969-9.488282 18.417969-19.9375 18.417969-10.449219 0-19.136719-8.089844-19.9375-18.507813-.011719-.140625-2.128906-23.140625-15.71875-45.238281-17.117188-27.839844-44.820313-41.953125-82.339844-41.953125-57.699219 0-98 43.289062-98 105.273438zm472 58.792968v181.71875c0 .023438-.003906.046875-.003906.070313 0 .050781.003906.097656.003906.144531 0 33.085938-26.914062 60-60 60s-60-26.914062-60-60 26.914062-60 60-60c7.011719 0 13.738281 1.21875 20 3.441406v-48.402344l-124 30.125v113.351563c0 1.089844-.109375 2.152344-.277344 3.195313-2.886718 30.414062-28.566406 54.289062-59.722656 54.289062-33.085938 0-60-26.914062-60-60s26.914062-60 60-60c7.011719 0 13.738281 1.21875 20 3.441406v-129.492187c0-18.277344 12.769531-34.230469 30.441406-38.140625l125.734375-31.796875c.28125-.070313.5625-.132813.847657-.195313 11.558593-2.386718 23.429687.511719 32.578124 7.960938 9.152344 7.449218 14.398438 18.488281 14.398438 30.289062zm-204 217.933594c0-11.027344-8.972656-20-20-20s-20 8.972656-20 20 8.972656 20 20 20 20-8.972656 20-20zm40-151.996094 124-30.128906v-34.582031l-124 31.359375zm124 115.996094c0-11.027344-8.972656-20-20-20s-20 8.972656-20 20 8.972656 20 20 20 20-8.972656 20-20zm0 0"/></svg>