<?xml version="1.0" encoding="iso-8859-1"?>
<!-- Generator: Adobe Illustrator 19.0.0, SVG Export Plug-In . SVG Version: 6.00 Build 0)  -->
<svg version="1.1" id="Capa_1" xmlns="http://www.w3.org/2000/svg" xmlns:xlink="http://www.w3.org/1999/xlink" x="0px" y="0px"
	 viewBox="0 0 471.249 471.249" style="enable-background:new 0 0 471.249 471.249;" xml:space="preserve">
<g>
	<path style="fill:#00BBD3;" d="M211.069,173.975c-8.882,0-15.673,6.792-15.673,15.673V281.6c0,8.882,6.792,15.673,15.673,15.673
		s15.673-6.792,15.673-15.673v-91.951C226.743,180.767,219.951,173.975,211.069,173.975z"/>
	<path style="fill:#00BBD3;" d="M162.482,125.388c-8.882,0-15.673,6.792-15.673,15.673v189.127c0,8.882,6.792,15.673,15.673,15.673
		s15.673-6.792,15.673-15.673V141.061C178.155,132.18,171.363,125.388,162.482,125.388z"/>
	<path style="fill:#00BBD3;" d="M113.371,79.935c-8.882,0-15.673,6.792-15.673,15.673v280.033c0,8.882,6.792,15.673,15.673,15.673
		s15.673-6.792,15.673-15.673V95.608C129.045,86.727,122.253,79.935,113.371,79.935z"/>
	<path style="fill:#00BBD3;" d="M64.784,125.388c-8.882,0-15.673,6.792-15.673,15.673v189.127c0,8.882,6.792,15.673,15.673,15.673
		s15.673-6.792,15.673-15.673V141.061C80.457,132.18,73.665,125.388,64.784,125.388z"/>
	<path style="fill:#00BBD3;" d="M15.673,170.841C6.792,170.841,0,177.633,0,186.514v98.22c0,8.882,6.792,15.673,15.673,15.673
		s15.673-6.792,15.673-15.673v-98.22C31.347,177.633,24.555,170.841,15.673,170.841z"/>
</g>
<g>
	<path style="fill:#3A2C51;" d="M357.878,79.935c-8.882,0-15.673,6.792-15.673,15.673v280.033c0,8.882,6.792,15.673,15.673,15.673
		c8.882,0,15.673-6.792,15.673-15.673V95.608C373.551,86.727,366.759,79.935,357.878,79.935z"/>
	<path style="fill:#3A2C51;" d="M308.767,125.388c-8.882,0-15.673,6.792-15.673,15.673v189.127c0,8.882,6.792,15.673,15.673,15.673
		s15.673-6.792,15.673-15.673V141.061C324.441,132.18,317.649,125.388,308.767,125.388z"/>
	<path style="fill:#3A2C51;" d="M260.18,149.943c-8.882,0-15.673,6.792-15.673,15.673v140.016c0,8.882,6.792,15.673,15.673,15.673
		c8.882,0,15.673-6.792,15.673-15.673V165.616C275.853,156.735,269.061,149.943,260.18,149.943z"/>
	<path style="fill:#3A2C51;" d="M406.465,125.388c-8.882,0-15.673,6.792-15.673,15.673v189.127c0,8.882,6.792,15.673,15.673,15.673
		c8.882,0,15.673-6.792,15.673-15.673V141.061C422.139,132.18,415.347,125.388,406.465,125.388z"/>
	<path style="fill:#3A2C51;" d="M455.576,170.841c-8.882,0-15.673,6.792-15.673,15.673v98.22c0,8.882,6.792,15.673,15.673,15.673
		s15.673-6.792,15.673-15.673v-98.22C471.249,177.633,464.457,170.841,455.576,170.841z"/>
</g>
<g>
</g>
<g>
</g>
<g>
</g>
<g>
</g>
<g>
</g>
<g>
</g>
<g>
</g>
<g>
</g>
<g>
</g>
<g>
</g>
<g>
</g>
<g>
</g>
<g>
</g>
<g>
</g>
<g>
</g>
</svg>
