<?xml version="1.0" encoding="iso-8859-1"?>
<!-- Generator: Adobe Illustrator 19.1.0, SVG Export Plug-In . SVG Version: 6.00 Build 0)  -->
<svg version="1.1" id="Capa_1" xmlns="http://www.w3.org/2000/svg" xmlns:xlink="http://www.w3.org/1999/xlink" x="0px" y="0px" fill="#fff"
	 viewBox="0 0 487.55 487.55" style="enable-background:new 0 0 487.55 487.55;" xml:space="preserve">
<g>
	<g id="XMLID_1992_">
		<path id="XMLID_2003_" d="M244.625,171.415c-40,0-72.4,32.4-72.4,72.4s32.4,72.4,72.4,72.4s72.4-32.4,72.4-72.4
			C316.925,203.815,284.525,171.415,244.625,171.415z M244.625,220.215c-13,0-23.6,10.6-23.6,23.6c0,6-4.8,10.8-10.8,10.8
			s-10.8-4.8-10.8-10.8c0-24.9,20.3-45.2,45.2-45.2c6,0,10.8,4.8,10.8,10.8C255.425,215.415,250.525,220.215,244.625,220.215z"/>
		<path id="XMLID_2012_" d="M481.325,227.515c-224.8-258.6-428-53.9-476.4,2.8c-6.5,7.6-6.6,18.8-0.1,26.4
			c221.9,259,423.4,64.6,476.5,3.7C489.625,251.015,489.625,237.015,481.325,227.515z M244.625,346.615
			c-56.8,0-102.8-46-102.8-102.8s46-102.8,102.8-102.8s102.8,46,102.8,102.8S301.325,346.615,244.625,346.615z"/>
	</g>
</g>
<g>
</g>
<g>
</g>
<g>
</g>
<g>
</g>
<g>
</g>
<g>
</g>
<g>
</g>
<g>
</g>
<g>
</g>
<g>
</g>
<g>
</g>
<g>
</g>
<g>
</g>
<g>
</g>
<g>
</g>
</svg>
