<?xml version="1.0"?>
<svg xmlns="http://www.w3.org/2000/svg" id="Outline" viewBox="0 0 512 512" width="512" height="512"><path d="M448,16H128a8,8,0,0,0-8,8V416H64a8,8,0,0,0-8,8v32a40.045,40.045,0,0,0,40,40H416a40.045,40.045,0,0,0,40-40V24A8,8,0,0,0,448,16ZM216,32H360V176H216ZM96,480a24.028,24.028,0,0,1-24-24V432H376v24a39.792,39.792,0,0,0,8.019,24Zm344-24a24,24,0,0,1-48,0V424a8,8,0,0,0-8-8H136V32h64V184a8,8,0,0,0,8,8H368a8,8,0,0,0,8-8V32h64Z"/><path d="M340.923,49.694a7.988,7.988,0,0,0-6.863-1.455l-64,16A8,8,0,0,0,264,72v41.376A24,24,0,1,0,280,136V78.246l48-12v31.13A24,24,0,1,0,344,120V56A8,8,0,0,0,340.923,49.694ZM256,144a8,8,0,1,1,8-8A8.009,8.009,0,0,1,256,144Zm64-16a8,8,0,1,1,8-8A8.009,8.009,0,0,1,320,128Z"/><path d="M248,224h80a8,8,0,0,0,0-16H248a8,8,0,0,0,0,16Z"/><path d="M368,240H208a8,8,0,0,0,0,16H368a8,8,0,0,0,0-16Z"/><path d="M360,280a8,8,0,0,0-8-8H224a8,8,0,0,0,0,16H352A8,8,0,0,0,360,280Z"/><path d="M248,320a8,8,0,0,0,0,16h80a8,8,0,0,0,0-16Z"/><path d="M368,352H208a8,8,0,0,0,0,16H368a8,8,0,0,0,0-16Z"/><path d="M352,384H224a8,8,0,0,0,0,16H352a8,8,0,0,0,0-16Z" fill="#fff"/></svg>
