<svg id="Capa_1" enable-background="new 0 0 512.284 512.284" height="512" viewBox="0 0 512.284 512.284" width="512" xmlns="http://www.w3.org/2000/svg" fill="#fff" ><g><path d="m76.142 134.142c0-11.028 8.972-20 20-20h311.716l-45.858 45.858 28.284 28.284 94.142-94.142-94.142-94.142-28.284 28.284 45.858 45.858h-311.716c-33.084 0-60 26.916-60 60v184h40z"/><path d="m436.142 378.142c0 11.028-8.972 20-20 20h-311.716l45.858-45.858-28.284-28.284-94.142 94.142 94.142 94.142 28.284-28.284-45.858-45.858h311.716c33.084 0 60-26.916 60-60v-184h-40z"/></g></svg>