<svg xmlns="http://www.w3.org/2000/svg" version="1.1" xmlns:xlink="http://www.w3.org/1999/xlink" xmlns:svgjs="http://svgjs.com/svgjs" width="1440" height="560" preserveAspectRatio="none" viewBox="0 0 1440 560"><g mask="url(&quot;#SvgjsMask3146&quot;)" fill="none"><g transform="translate(0, 0)" stroke-linecap="round"><path d="M12 192.23 L12 210.23" stroke-width="18" stroke="#3a7cc3"></path><path d="M12 237.23 L12 291.23" stroke-width="18" stroke="#dd1133"></path><path d="M12 318.23 L12 367.77" stroke-width="18" stroke="#3a7cc3"></path><path d="M36 229.73 L36 247.73" stroke-width="18" stroke="#dd1133"></path><path d="M36 274.73 L36 330.27" stroke-width="18" stroke="#3a7cc3"></path><path d="M60 237.29 L60 255.29" stroke-width="18" stroke="#dd1133"></path><path d="M60 282.28999999999996 L60 322.71" stroke-width="18" stroke="#dd1133"></path><path d="M84 176.17 L84 248.17" stroke-width="18" stroke="#3a7cc3"></path><path d="M84 275.16999999999996 L84 293.16999999999996" stroke-width="18" stroke="#dd1133"></path><path d="M84 320.16999999999996 L84 383.83" stroke-width="18" stroke="#dd1133"></path><path d="M108 102.63 L108 246.63" stroke-width="18" stroke="#dd1133"></path><path d="M108 273.63 L108 327.63" stroke-width="18" stroke="#3a7cc3"></path><path d="M108 354.63 L108 457.37" stroke-width="18" stroke="#dd1133"></path><path d="M132 93.8 L132 466.2" stroke-width="18" stroke="#3a7cc3"></path><path d="M156 59.75 L156 221.75" stroke-width="18" stroke="#dd1133"></path><path d="M156 248.75 L156 500.25" stroke-width="18" stroke="#3a7cc3"></path><path d="M180 59.78 L180 500.22" stroke-width="18" stroke="#3a7cc3"></path><path d="M204 118.29 L204 280.29" stroke-width="18" stroke="#3a7cc3"></path><path d="M204 307.29 L204 343.29" stroke-width="18" stroke="#3a7cc3"></path><path d="M204 370.29 L204 441.71" stroke-width="18" stroke="#3a7cc3"></path><path d="M228 223.55 L228 241.55" stroke-width="18" stroke="#dd1133"></path><path d="M228 268.55 L228 336.45" stroke-width="18" stroke="#dd1133"></path><path d="M252 69.53 L252 490.48" stroke-width="18" stroke="#dd1133"></path><path d="M276 101.65 L276 209.65" stroke-width="18" stroke="#3a7cc3"></path><path d="M276 236.65 L276 344.65" stroke-width="18" stroke="#dd1133"></path><path d="M276 371.65 L276 458.35" stroke-width="18" stroke="#dd1133"></path><path d="M300 112.11 L300 382.11" stroke-width="18" stroke="#3a7cc3"></path><path d="M300 409.11 L300 447.89" stroke-width="18" stroke="#3a7cc3"></path><path d="M324 96.21 L324 114.21" stroke-width="18" stroke="#3a7cc3"></path><path d="M324 141.20999999999998 L324 285.21" stroke-width="18" stroke="#dd1133"></path><path d="M324 312.21 L324 463.79" stroke-width="18" stroke="#dd1133"></path><path d="M348 224.53 L348 242.53" stroke-width="18" stroke="#dd1133"></path><path d="M348 269.53 L348 287.53" stroke-width="18" stroke="#dd1133"></path><path d="M348 314.53 L348 335.47" stroke-width="18" stroke="#dd1133"></path><path d="M372 107.82 L372 269.82" stroke-width="18" stroke="#dd1133"></path><path d="M372 296.82 L372 350.82" stroke-width="18" stroke="#dd1133"></path><path d="M372 377.82 L372 452.18" stroke-width="18" stroke="#dd1133"></path><path d="M396 34.92 L396 70.92" stroke-width="18" stroke="#3a7cc3"></path><path d="M396 97.92 L396 525.08" stroke-width="18" stroke="#3a7cc3"></path><path d="M420 65 L420 495" stroke-width="18" stroke="#dd1133"></path><path d="M444 199.63 L444 253.63" stroke-width="18" stroke="#3a7cc3"></path><path d="M444 280.63 L444 298.63" stroke-width="18" stroke="#dd1133"></path><path d="M444 325.63 L444 360.37" stroke-width="18" stroke="#dd1133"></path><path d="M468 129.93 L468 291.93" stroke-width="18" stroke="#dd1133"></path><path d="M468 318.93 L468 372.93" stroke-width="18" stroke="#dd1133"></path><path d="M468 399.93 L468 430.07" stroke-width="18" stroke="#3a7cc3"></path><path d="M492 25.36 L492 421.36" stroke-width="18" stroke="#3a7cc3"></path><path d="M492 448.36 L492 466.36" stroke-width="18" stroke="#dd1133"></path><path d="M492 493.36 L492 534.64" stroke-width="18" stroke="#dd1133"></path><path d="M516 41.31 L516 329.31" stroke-width="18" stroke="#dd1133"></path><path d="M516 356.31 L516 392.31" stroke-width="18" stroke="#dd1133"></path><path d="M516 419.31 L516 518.69" stroke-width="18" stroke="#3a7cc3"></path><path d="M540 232.56 L540 250.56" stroke-width="18" stroke="#dd1133"></path><path d="M540 277.56 L540 327.44" stroke-width="18" stroke="#3a7cc3"></path><path d="M564 225.89 L564 243.89" stroke-width="18" stroke="#3a7cc3"></path><path d="M564 270.89 L564 288.89" stroke-width="18" stroke="#3a7cc3"></path><path d="M564 315.89 L564 334.11" stroke-width="18" stroke="#3a7cc3"></path><path d="M588 159.17 L588 400.83" stroke-width="18" stroke="#dd1133"></path><path d="M612 222.81 L612 240.81" stroke-width="18" stroke="#3a7cc3"></path><path d="M612 267.81 L612 285.81" stroke-width="18" stroke="#dd1133"></path><path d="M612 312.81 L612 337.19" stroke-width="18" stroke="#3a7cc3"></path><path d="M636 223.26 L636 241.26" stroke-width="18" stroke="#3a7cc3"></path><path d="M636 268.26 L636 286.26" stroke-width="18" stroke="#dd1133"></path><path d="M636 313.26 L636 336.74" stroke-width="18" stroke="#dd1133"></path><path d="M660 153.25 L660 225.25" stroke-width="18" stroke="#3a7cc3"></path><path d="M660 252.25 L660 406.75" stroke-width="18" stroke="#dd1133"></path><path d="M684 63.03 L684 135.03" stroke-width="18" stroke="#dd1133"></path><path d="M684 162.03 L684 342.03" stroke-width="18" stroke="#3a7cc3"></path><path d="M684 369.03 L684 496.97" stroke-width="18" stroke="#dd1133"></path><path d="M708 43.98 L708 241.98" stroke-width="18" stroke="#dd1133"></path><path d="M708 268.98 L708 322.98" stroke-width="18" stroke="#dd1133"></path><path d="M708 349.98 L708 516.02" stroke-width="18" stroke="#dd1133"></path><path d="M732 102.75 L732 264.75" stroke-width="18" stroke="#3a7cc3"></path><path d="M732 291.75 L732 457.25" stroke-width="18" stroke="#3a7cc3"></path><path d="M756 217.15 L756 235.15" stroke-width="18" stroke="#dd1133"></path><path d="M756 262.15 L756 280.15" stroke-width="18" stroke="#dd1133"></path><path d="M756 307.15 L756 342.85" stroke-width="18" stroke="#3a7cc3"></path><path d="M780 213.42 L780 267.41999999999996" stroke-width="18" stroke="#3a7cc3"></path><path d="M780 294.41999999999996 L780 346.58" stroke-width="18" stroke="#3a7cc3"></path><path d="M804 201.61 L804 237.61" stroke-width="18" stroke="#dd1133"></path><path d="M804 264.61 L804 282.61" stroke-width="18" stroke="#dd1133"></path><path d="M804 309.61 L804 358.39" stroke-width="18" stroke="#3a7cc3"></path><path d="M828 24.34 L828 456.34" stroke-width="18" stroke="#dd1133"></path><path d="M828 483.34 L828 535.66" stroke-width="18" stroke="#dd1133"></path><path d="M852 97.49 L852 462.51" stroke-width="18" stroke="#dd1133"></path><path d="M876 135.78 L876 315.78" stroke-width="18" stroke="#dd1133"></path><path d="M876 342.78 L876 424.23" stroke-width="18" stroke="#3a7cc3"></path><path d="M900 20.509999999999998 L900 200.51" stroke-width="18" stroke="#dd1133"></path><path d="M900 227.51 L900 425.51" stroke-width="18" stroke="#3a7cc3"></path><path d="M900 452.51 L900 539.49" stroke-width="18" stroke="#3a7cc3"></path><path d="M924 138.76 L924 228.76" stroke-width="18" stroke="#3a7cc3"></path><path d="M924 255.76 L924 421.24" stroke-width="18" stroke="#dd1133"></path><path d="M948 162.53 L948 234.53" stroke-width="18" stroke="#3a7cc3"></path><path d="M948 261.53 L948 297.53" stroke-width="18" stroke="#3a7cc3"></path><path d="M948 324.53 L948 397.47" stroke-width="18" stroke="#dd1133"></path><path d="M972 122.38 L972 338.38" stroke-width="18" stroke="#dd1133"></path><path d="M972 365.38 L972 383.38" stroke-width="18" stroke="#3a7cc3"></path><path d="M972 410.38 L972 437.62" stroke-width="18" stroke="#dd1133"></path><path d="M996 177.13 L996 231.13" stroke-width="18" stroke="#3a7cc3"></path><path d="M996 258.13 L996 312.13" stroke-width="18" stroke="#3a7cc3"></path><path d="M996 339.13 L996 382.87" stroke-width="18" stroke="#dd1133"></path><path d="M1020 35.31 L1020 89.31" stroke-width="18" stroke="#3a7cc3"></path><path d="M1020 116.31 L1020 206.31" stroke-width="18" stroke="#dd1133"></path><path d="M1020 233.31 L1020 524.69" stroke-width="18" stroke="#dd1133"></path><path d="M1044 257.99 L1044 302.01" stroke-width="18" stroke="#3a7cc3"></path><path d="M1068 134.13 L1068 206.13" stroke-width="18" stroke="#3a7cc3"></path><path d="M1068 233.13 L1068 305.13" stroke-width="18" stroke="#3a7cc3"></path><path d="M1068 332.13 L1068 425.88" stroke-width="18" stroke="#dd1133"></path><path d="M1092 54.15 L1092 126.15" stroke-width="18" stroke="#3a7cc3"></path><path d="M1092 153.15 L1092 225.15" stroke-width="18" stroke="#3a7cc3"></path><path d="M1092 252.15 L1092 505.86" stroke-width="18" stroke="#dd1133"></path><path d="M1116 57.06 L1116 129.06" stroke-width="18" stroke="#dd1133"></path><path d="M1116 156.06 L1116 408.06" stroke-width="18" stroke="#3a7cc3"></path><path d="M1116 435.06 L1116 502.94" stroke-width="18" stroke="#3a7cc3"></path><path d="M1140 177.75 L1140 382.25" stroke-width="18" stroke="#3a7cc3"></path><path d="M1164 224.69 L1164 242.69" stroke-width="18" stroke="#3a7cc3"></path><path d="M1164 269.69 L1164 287.69" stroke-width="18" stroke="#3a7cc3"></path><path d="M1164 314.69 L1164 335.31" stroke-width="18" stroke="#dd1133"></path><path d="M1188 222.17 L1188 240.17" stroke-width="18" stroke="#3a7cc3"></path><path d="M1188 267.16999999999996 L1188 285.16999999999996" stroke-width="18" stroke="#3a7cc3"></path><path d="M1188 312.16999999999996 L1188 337.83" stroke-width="18" stroke="#3a7cc3"></path><path d="M1212 229.31 L1212 330.69" stroke-width="18" stroke="#dd1133"></path><path d="M1236 220.03 L1236 238.03" stroke-width="18" stroke="#dd1133"></path><path d="M1236 265.03 L1236 339.97" stroke-width="18" stroke="#dd1133"></path><path d="M1260 57.54 L1260 183.54" stroke-width="18" stroke="#dd1133"></path><path d="M1260 210.54 L1260 318.53999999999996" stroke-width="18" stroke="#3a7cc3"></path><path d="M1260 345.53999999999996 L1260 502.46" stroke-width="18" stroke="#dd1133"></path><path d="M1284 38.870000000000005 L1284 200.87" stroke-width="18" stroke="#dd1133"></path><path d="M1284 227.87 L1284 443.87" stroke-width="18" stroke="#3a7cc3"></path><path d="M1284 470.87 L1284 521.13" stroke-width="18" stroke="#3a7cc3"></path><path d="M1308 218.1 L1308 236.1" stroke-width="18" stroke="#3a7cc3"></path><path d="M1308 263.1 L1308 281.1" stroke-width="18" stroke="#3a7cc3"></path><path d="M1308 308.1 L1308 341.9" stroke-width="18" stroke="#dd1133"></path><path d="M1332 13.52 L1332 49.519999999999996" stroke-width="18" stroke="#dd1133"></path><path d="M1332 76.52 L1332 382.52" stroke-width="18" stroke="#3a7cc3"></path><path d="M1332 409.52 L1332 546.48" stroke-width="18" stroke="#3a7cc3"></path><path d="M1356 258.43 L1356 301.57" stroke-width="18" stroke="#dd1133"></path><path d="M1380 53.15 L1380 413.15" stroke-width="18" stroke="#3a7cc3"></path><path d="M1380 440.15 L1380 506.85" stroke-width="18" stroke="#3a7cc3"></path><path d="M1404 16.08 L1404 196.08" stroke-width="18" stroke="#3a7cc3"></path><path d="M1404 223.08 L1404 349.08000000000004" stroke-width="18" stroke="#3a7cc3"></path><path d="M1404 376.08000000000004 L1404 543.92" stroke-width="18" stroke="#3a7cc3"></path><path d="M1428 10.79 L1428 172.79" stroke-width="18" stroke="#3a7cc3"></path><path d="M1428 199.79 L1428 549.21" stroke-width="18" stroke="#dd1133"></path></g></g><defs><mask id="SvgjsMask3146"><rect width="1440" height="560" fill="#ffffff"></rect></mask></defs></svg>