<svg xmlns="http://www.w3.org/2000/svg" version="1.1" xmlns:xlink="http://www.w3.org/1999/xlink" xmlns:svgjs="http://svgjs.com/svgjs" width="1440" height="560" preserveAspectRatio="none" viewBox="0 0 1440 560"><g mask="url(&quot;#SvgjsMask3064&quot;)" fill="none"><g transform="translate(0, 0)" stroke-linecap="round"><path d="M500 239.56 L500 256.06" stroke-width="16.5" stroke="#3a7cc3"></path><path d="M500 280.81 L500 320.44" stroke-width="16.5" stroke="#dd1133"></path><path d="M522 235.09 L522 251.59" stroke-width="16.5" stroke="#dd1133"></path><path d="M522 276.34000000000003 L522 324.91" stroke-width="16.5" stroke="#3a7cc3"></path><path d="M544 222.53 L544 272.03" stroke-width="16.5" stroke="#dd1133"></path><path d="M544 296.78 L544 337.47" stroke-width="16.5" stroke="#dd1133"></path><path d="M566 238.19 L566 254.69" stroke-width="16.5" stroke="#3a7cc3"></path><path d="M566 279.44 L566 321.81" stroke-width="16.5" stroke="#dd1133"></path><path d="M588 210.22 L588 292.72" stroke-width="16.5" stroke="#dd1133"></path><path d="M588 317.47 L588 349.78" stroke-width="16.5" stroke="#3a7cc3"></path><path d="M610 219.88 L610 252.88" stroke-width="16.5" stroke="#3a7cc3"></path><path d="M610 277.63 L610 294.13" stroke-width="16.5" stroke="#3a7cc3"></path><path d="M610 318.88 L610 340.12" stroke-width="16.5" stroke="#3a7cc3"></path><path d="M632 265.91 L632 294.09" stroke-width="16.5" stroke="#dd1133"></path><path d="M654 207.88 L654 257.38" stroke-width="16.5" stroke="#3a7cc3"></path><path d="M654 282.13 L654 298.63" stroke-width="16.5" stroke="#dd1133"></path><path d="M654 323.38 L654 352.12" stroke-width="16.5" stroke="#3a7cc3"></path><path d="M676 270.9 L676 289.1" stroke-width="16.5" stroke="#dd1133"></path><path d="M698 229.66 L698 330.35" stroke-width="16.5" stroke="#3a7cc3"></path><path d="M720 252.66 L720 307.33" stroke-width="16.5" stroke="#dd1133"></path><path d="M742 243.03 L742 316.97" stroke-width="16.5" stroke="#3a7cc3"></path><path d="M764 278.17 L764 281.83" stroke-width="16.5" stroke="#3a7cc3"></path><path d="M786 207.45 L786 352.55" stroke-width="16.5" stroke="#dd1133"></path><path d="M808 223.67 L808 240.17" stroke-width="16.5" stroke="#dd1133"></path><path d="M808 264.91999999999996 L808 281.41999999999996" stroke-width="16.5" stroke="#3a7cc3"></path><path d="M808 306.16999999999996 L808 336.33" stroke-width="16.5" stroke="#3a7cc3"></path><path d="M830 197.91 L830 230.91" stroke-width="16.5" stroke="#3a7cc3"></path><path d="M830 255.66 L830 362.09" stroke-width="16.5" stroke="#3a7cc3"></path><path d="M852 223.75 L852 240.25" stroke-width="16.5" stroke="#dd1133"></path><path d="M852 265 L852 281.5" stroke-width="16.5" stroke="#3a7cc3"></path><path d="M852 306.25 L852 336.25" stroke-width="16.5" stroke="#3a7cc3"></path><path d="M874 262.82 L874 297.18" stroke-width="16.5" stroke="#3a7cc3"></path><path d="M896 230.24 L896 246.74" stroke-width="16.5" stroke="#3a7cc3"></path><path d="M896 271.49 L896 329.76" stroke-width="16.5" stroke="#3a7cc3"></path><path d="M918 257.34000000000003 L918 302.67" stroke-width="16.5" stroke="#dd1133"></path><path d="M940 220.45 L940 236.95" stroke-width="16.5" stroke="#3a7cc3"></path><path d="M940 261.7 L940 294.7" stroke-width="16.5" stroke="#dd1133"></path><path d="M940 319.45 L940 339.55" stroke-width="16.5" stroke="#dd1133"></path></g></g><defs><mask id="SvgjsMask3064"><rect width="1440" height="560" fill="#ffffff"></rect></mask></defs></svg>