<svg id="visual" viewBox="0 0 900 600" width="900" height="600" xmlns="http://www.w3.org/2000/svg" xmlns:xlink="http://www.w3.org/1999/xlink" version="1.1"><rect x="0" y="0" width="900" height="600" fill="#001220"></rect><defs><linearGradient id="grad1_0" x1="33.3%" y1="100%" x2="100%" y2="0%"><stop offset="20%" stop-color="#fbae3c" stop-opacity="1"></stop><stop offset="80%" stop-color="#fbae3c" stop-opacity="1"></stop></linearGradient></defs><defs><linearGradient id="grad1_1" x1="33.3%" y1="100%" x2="100%" y2="0%"><stop offset="20%" stop-color="#fbae3c" stop-opacity="1"></stop><stop offset="80%" stop-color="#f48350" stop-opacity="1"></stop></linearGradient></defs><defs><linearGradient id="grad1_2" x1="33.3%" y1="100%" x2="100%" y2="0%"><stop offset="20%" stop-color="#d96162" stop-opacity="1"></stop><stop offset="80%" stop-color="#f48350" stop-opacity="1"></stop></linearGradient></defs><defs><linearGradient id="grad1_3" x1="33.3%" y1="100%" x2="100%" y2="0%"><stop offset="20%" stop-color="#d96162" stop-opacity="1"></stop><stop offset="80%" stop-color="#af4b6d" stop-opacity="1"></stop></linearGradient></defs><defs><linearGradient id="grad1_4" x1="33.3%" y1="100%" x2="100%" y2="0%"><stop offset="20%" stop-color="#7c3e6b" stop-opacity="1"></stop><stop offset="80%" stop-color="#af4b6d" stop-opacity="1"></stop></linearGradient></defs><defs><linearGradient id="grad1_5" x1="33.3%" y1="100%" x2="100%" y2="0%"><stop offset="20%" stop-color="#7c3e6b" stop-opacity="1"></stop><stop offset="80%" stop-color="#49335c" stop-opacity="1"></stop></linearGradient></defs><defs><linearGradient id="grad1_6" x1="33.3%" y1="100%" x2="100%" y2="0%"><stop offset="20%" stop-color="#1d2540" stop-opacity="1"></stop><stop offset="80%" stop-color="#49335c" stop-opacity="1"></stop></linearGradient></defs><defs><linearGradient id="grad1_7" x1="33.3%" y1="100%" x2="100%" y2="0%"><stop offset="20%" stop-color="#1d2540" stop-opacity="1"></stop><stop offset="80%" stop-color="#001220" stop-opacity="1"></stop></linearGradient></defs><defs><linearGradient id="grad2_0" x1="0%" y1="100%" x2="66.7%" y2="0%"><stop offset="20%" stop-color="#fbae3c" stop-opacity="1"></stop><stop offset="80%" stop-color="#fbae3c" stop-opacity="1"></stop></linearGradient></defs><defs><linearGradient id="grad2_1" x1="0%" y1="100%" x2="66.7%" y2="0%"><stop offset="20%" stop-color="#f48350" stop-opacity="1"></stop><stop offset="80%" stop-color="#fbae3c" stop-opacity="1"></stop></linearGradient></defs><defs><linearGradient id="grad2_2" x1="0%" y1="100%" x2="66.7%" y2="0%"><stop offset="20%" stop-color="#f48350" stop-opacity="1"></stop><stop offset="80%" stop-color="#d96162" stop-opacity="1"></stop></linearGradient></defs><defs><linearGradient id="grad2_3" x1="0%" y1="100%" x2="66.7%" y2="0%"><stop offset="20%" stop-color="#af4b6d" stop-opacity="1"></stop><stop offset="80%" stop-color="#d96162" stop-opacity="1"></stop></linearGradient></defs><defs><linearGradient id="grad2_4" x1="0%" y1="100%" x2="66.7%" y2="0%"><stop offset="20%" stop-color="#af4b6d" stop-opacity="1"></stop><stop offset="80%" stop-color="#7c3e6b" stop-opacity="1"></stop></linearGradient></defs><defs><linearGradient id="grad2_5" x1="0%" y1="100%" x2="66.7%" y2="0%"><stop offset="20%" stop-color="#49335c" stop-opacity="1"></stop><stop offset="80%" stop-color="#7c3e6b" stop-opacity="1"></stop></linearGradient></defs><defs><linearGradient id="grad2_6" x1="0%" y1="100%" x2="66.7%" y2="0%"><stop offset="20%" stop-color="#49335c" stop-opacity="1"></stop><stop offset="80%" stop-color="#1d2540" stop-opacity="1"></stop></linearGradient></defs><defs><linearGradient id="grad2_7" x1="0%" y1="100%" x2="66.7%" y2="0%"><stop offset="20%" stop-color="#001220" stop-opacity="1"></stop><stop offset="80%" stop-color="#1d2540" stop-opacity="1"></stop></linearGradient></defs><g transform="translate(900, 600)"><path d="M-432.7 0C-391.1 -57.8 -349.6 -115.6 -318.7 -184C-287.8 -252.4 -267.7 -331.5 -216.3 -374.7C-165 -417.9 -82.5 -425.3 0 -432.7L0 0Z" fill="#0c1c30"></path><path d="M-378.6 0C-342.2 -50.6 -305.9 -101.1 -278.9 -161C-251.9 -220.9 -234.2 -290 -189.3 -327.9C-144.4 -365.7 -72.2 -372.1 0 -378.6L0 0Z" fill="#312c4f"></path><path d="M-324.5 0C-293.3 -43.3 -262.2 -86.7 -239 -138C-215.9 -189.3 -200.8 -248.6 -162.2 -281C-123.7 -313.4 -61.9 -319 0 -324.5L0 0Z" fill="#623965"></path><path d="M-270.4 0C-244.4 -36.1 -218.5 -72.2 -199.2 -115C-179.9 -157.8 -167.3 -207.2 -135.2 -234.2C-103.1 -261.2 -51.6 -265.8 0 -270.4L0 0Z" fill="#96446e"></path><path d="M-216.3 0C-195.6 -28.9 -174.8 -57.8 -159.3 -92C-143.9 -126.2 -133.8 -165.7 -108.2 -187.3C-82.5 -209 -41.2 -212.6 0 -216.3L0 0Z" fill="#c55469"></path><path d="M-162.2 0C-146.7 -21.7 -131.1 -43.3 -119.5 -69C-107.9 -94.7 -100.4 -124.3 -81.1 -140.5C-61.9 -156.7 -30.9 -159.5 0 -162.2L0 0Z" fill="#e9705a"></path><path d="M-108.2 0C-97.8 -14.4 -87.4 -28.9 -79.7 -46C-72 -63.1 -66.9 -82.9 -54.1 -93.7C-41.2 -104.5 -20.6 -106.3 0 -108.2L0 0Z" fill="#fa9845"></path><path d="M-54.1 0C-48.9 -7.2 -43.7 -14.4 -39.8 -23C-36 -31.6 -33.5 -41.4 -27 -46.8C-20.6 -52.2 -10.3 -53.2 0 -54.1L0 0Z" fill="#fbae3c"></path></g><g transform="translate(0, 0)"><path d="M432.7 0C384.2 53.8 335.7 107.6 305.7 176.5C275.7 245.4 264.2 329.5 216.3 374.7C168.5 419.9 84.2 426.3 0 432.7L0 0Z" fill="#0c1c30"></path><path d="M378.6 0C336.2 47.1 293.7 94.1 267.5 154.4C241.2 214.7 231.2 288.3 189.3 327.9C147.4 367.4 73.7 373 0 378.6L0 0Z" fill="#312c4f"></path><path d="M324.5 0C288.1 40.3 251.8 80.7 229.3 132.4C206.8 184.1 198.2 247.1 162.2 281C126.3 314.9 63.2 319.7 0 324.5L0 0Z" fill="#623965"></path><path d="M270.4 0C240.1 33.6 209.8 67.2 191.1 110.3C172.3 153.4 165.1 205.9 135.2 234.2C105.3 262.4 52.6 266.4 0 270.4L0 0Z" fill="#96446e"></path><path d="M216.3 0C192.1 26.9 167.9 53.8 152.9 88.2C137.9 122.7 132.1 164.7 108.2 187.3C84.2 210 42.1 213.1 0 216.3L0 0Z" fill="#c55469"></path><path d="M162.2 0C144.1 20.2 125.9 40.3 114.6 66.2C103.4 92 99.1 123.6 81.1 140.5C63.2 157.5 31.6 159.9 0 162.2L0 0Z" fill="#e9705a"></path><path d="M108.2 0C96 13.4 83.9 26.9 76.4 44.1C68.9 61.4 66.1 82.4 54.1 93.7C42.1 105 21.1 106.6 0 108.2L0 0Z" fill="#fa9845"></path><path d="M54.1 0C48 6.7 42 13.4 38.2 22.1C34.5 30.7 33 41.2 27 46.8C21.1 52.5 10.5 53.3 0 54.1L0 0Z" fill="#fbae3c"></path></g></svg>