<svg id="visual" viewBox="0 0 900 600" width="900" height="600" xmlns="http://www.w3.org/2000/svg" preserveAspectRatio="none" xmlns:xlink="http://www.w3.org/1999/xlink" version="1.1"><path d="M618 600L608 585.7C598 571.3 578 542.7 574 514.2C570 485.7 582 457.3 581.7 428.8C581.3 400.3 568.7 371.7 561 343C553.3 314.3 550.7 285.7 568.2 257C585.7 228.3 623.3 199.7 638.5 171.2C653.7 142.7 646.3 114.3 624.8 85.8C603.3 57.3 567.7 28.7 549.8 14.3L532 0L900 0L900 14.3C900 28.7 900 57.3 900 85.8C900 114.3 900 142.7 900 171.2C900 199.7 900 228.3 900 257C900 285.7 900 314.3 900 343C900 371.7 900 400.3 900 428.8C900 457.3 900 485.7 900 514.2C900 542.7 900 571.3 900 585.7L900 600Z" fill="#008e9e"></path><path d="M653 600L654.8 585.7C656.7 571.3 660.3 542.7 650.8 514.2C641.3 485.7 618.7 457.3 616.5 428.8C614.3 400.3 632.7 371.7 633 343C633.3 314.3 615.7 285.7 610.3 257C605 228.3 612 199.7 632.2 171.2C652.3 142.7 685.7 114.3 696.7 85.8C707.7 57.3 696.3 28.7 690.7 14.3L685 0L900 0L900 14.3C900 28.7 900 57.3 900 85.8C900 114.3 900 142.7 900 171.2C900 199.7 900 228.3 900 257C900 285.7 900 314.3 900 343C900 371.7 900 400.3 900 428.8C900 457.3 900 485.7 900 514.2C900 542.7 900 571.3 900 585.7L900 600Z" fill="#0078bb"></path><path d="M660 600L676.7 585.7C693.3 571.3 726.7 542.7 740 514.2C753.3 485.7 746.7 457.3 744.8 428.8C743 400.3 746 371.7 733.8 343C721.7 314.3 694.3 285.7 687 257C679.7 228.3 692.3 199.7 709.2 171.2C726 142.7 747 114.3 741.3 85.8C735.7 57.3 703.3 28.7 687.2 14.3L671 0L900 0L900 14.3C900 28.7 900 57.3 900 85.8C900 114.3 900 142.7 900 171.2C900 199.7 900 228.3 900 257C900 285.7 900 314.3 900 343C900 371.7 900 400.3 900 428.8C900 457.3 900 485.7 900 514.2C900 542.7 900 571.3 900 585.7L900 600Z" fill="#0f64c0"></path><path d="M759 600L767.3 585.7C775.7 571.3 792.3 542.7 791.3 514.2C790.3 485.7 771.7 457.3 764.2 428.8C756.7 400.3 760.3 371.7 762.7 343C765 314.3 766 285.7 771.2 257C776.3 228.3 785.7 199.7 778.8 171.2C772 142.7 749 114.3 752.3 85.8C755.7 57.3 785.3 28.7 800.2 14.3L815 0L900 0L900 14.3C900 28.7 900 57.3 900 85.8C900 114.3 900 142.7 900 171.2C900 199.7 900 228.3 900 257C900 285.7 900 314.3 900 343C900 371.7 900 400.3 900 428.8C900 457.3 900 485.7 900 514.2C900 542.7 900 571.3 900 585.7L900 600Z" fill="#0078bb"></path><path d="M829 600L826 585.7C823 571.3 817 542.7 814.5 514.2C812 485.7 813 457.3 815.3 428.8C817.7 400.3 821.3 371.7 829.2 343C837 314.3 849 285.7 845.2 257C841.3 228.3 821.7 199.7 815.3 171.2C809 142.7 816 114.3 820.5 85.8C825 57.3 827 28.7 828 14.3L829 0L900 0L900 14.3C900 28.7 900 57.3 900 85.8C900 114.3 900 142.7 900 171.2C900 199.7 900 228.3 900 257C900 285.7 900 314.3 900 343C900 371.7 900 400.3 900 428.8C900 457.3 900 485.7 900 514.2C900 542.7 900 571.3 900 585.7L900 600Z" fill="#008e9e"></path></svg>