<svg id="visual" viewBox="0 0 900 600" width="900" height="600" xmlns="http://www.w3.org/2000/svg" preserveAspectRatio="none" xmlns:xlink="http://www.w3.org/1999/xlink" version="1.1"><path d="M344 0L329.2 14.3C314.3 28.7 284.7 57.3 269.8 85.8C255 114.3 255 142.7 265.7 171.2C276.3 199.7 297.7 228.3 314.7 257C331.7 285.7 344.3 314.3 332.2 343C320 371.7 283 400.3 272 428.8C261 457.3 276 485.7 297.5 514.2C319 542.7 347 571.3 361 585.7L375 600L0 600L0 585.7C0 571.3 0 542.7 0 514.2C0 485.7 0 457.3 0 428.8C0 400.3 0 371.7 0 343C0 314.3 0 285.7 0 257C0 228.3 0 199.7 0 171.2C0 142.7 0 114.3 0 85.8C0 57.3 0 28.7 0 14.3L0 0Z" fill="#a16ae8"></path><path d="M269 0L265.8 14.3C262.7 28.7 256.3 57.3 262 85.8C267.7 114.3 285.3 142.7 275.5 171.2C265.7 199.7 228.3 228.3 216 257C203.7 285.7 216.3 314.3 217 343C217.7 371.7 206.3 400.3 214.8 428.8C223.3 457.3 251.7 485.7 259.5 514.2C267.3 542.7 254.7 571.3 248.3 585.7L242 600L0 600L0 585.7C0 571.3 0 542.7 0 514.2C0 485.7 0 457.3 0 428.8C0 400.3 0 371.7 0 343C0 314.3 0 285.7 0 257C0 228.3 0 199.7 0 171.2C0 142.7 0 114.3 0 85.8C0 57.3 0 28.7 0 14.3L0 0Z" fill="#e281a6"></path><path d="M182 0L191.2 14.3C200.3 28.7 218.7 57.3 220 85.8C221.3 114.3 205.7 142.7 200.8 171.2C196 199.7 202 228.3 210 257C218 285.7 228 314.3 220.2 343C212.3 371.7 186.7 400.3 174 428.8C161.3 457.3 161.7 485.7 158.7 514.2C155.7 542.7 149.3 571.3 146.2 585.7L143 600L0 600L0 585.7C0 571.3 0 542.7 0 514.2C0 485.7 0 457.3 0 428.8C0 400.3 0 371.7 0 343C0 314.3 0 285.7 0 257C0 228.3 0 199.7 0 171.2C0 142.7 0 114.3 0 85.8C0 57.3 0 28.7 0 14.3L0 0Z" fill="#d9a1a0"></path><path d="M178 0L163.7 14.3C149.3 28.7 120.7 57.3 119.7 85.8C118.7 114.3 145.3 142.7 159 171.2C172.7 199.7 173.3 228.3 173.5 257C173.7 285.7 173.3 314.3 168.2 343C163 371.7 153 400.3 139.3 428.8C125.7 457.3 108.3 485.7 98.8 514.2C89.3 542.7 87.7 571.3 86.8 585.7L86 600L0 600L0 585.7C0 571.3 0 542.7 0 514.2C0 485.7 0 457.3 0 428.8C0 400.3 0 371.7 0 343C0 314.3 0 285.7 0 257C0 228.3 0 199.7 0 171.2C0 142.7 0 114.3 0 85.8C0 57.3 0 28.7 0 14.3L0 0Z" fill="#e281a6"></path><path d="M103 0L94 14.3C85 28.7 67 57.3 60.8 85.8C54.7 114.3 60.3 142.7 67.2 171.2C74 199.7 82 228.3 79.5 257C77 285.7 64 314.3 62.3 343C60.7 371.7 70.3 400.3 69.2 428.8C68 457.3 56 485.7 50.8 514.2C45.7 542.7 47.3 571.3 48.2 585.7L49 600L0 600L0 585.7C0 571.3 0 542.7 0 514.2C0 485.7 0 457.3 0 428.8C0 400.3 0 371.7 0 343C0 314.3 0 285.7 0 257C0 228.3 0 199.7 0 171.2C0 142.7 0 114.3 0 85.8C0 57.3 0 28.7 0 14.3L0 0Z" fill="#a16ae8"></path></svg>