<svg xmlns="http://www.w3.org/2000/svg" version="1.1" xmlns:xlink="http://www.w3.org/1999/xlink" xmlns:svgjs="http://svgjs.com/svgjs" width="1440" height="560" preserveAspectRatio="none" viewBox="0 0 1440 560">
    <g mask="url(&quot;#SvgjsMask1195&quot;)" fill="none">
        <path d="M -57.79010104534177,145 C -35.59,202.6 8.81,459.4 53.20989895465823,433 C 97.61,406.6 119.81,-12 164.20989895465823,13 C 208.61,38 230.81,532.8 275.20989895465823,558 C 319.61,583.2 341.81,139.6 386.20989895465823,139 C 430.61,138.4 452.81,546.6 497.20989895465823,555 C 541.61,563.4 563.81,227.6 608.2098989546582,181 C 652.61,134.4 674.81,346.6 719.2098989546582,322 C 763.61,297.4 785.81,23.2 830.2098989546582,58 C 874.61,92.8 896.81,492 941.2098989546582,496 C 985.61,500 1007.81,106.4 1052.2098989546582,78 C 1096.61,49.6 1118.81,327.8 1163.2098989546582,354 C 1207.61,380.2 1229.81,201.2 1274.2098989546582,209 C 1318.61,216.8 1340.81,381.4 1385.2098989546582,393 C 1429.61,404.6 1485.25,259.2 1496.2098989546582,267 C 1507.17,274.8 1451.24,399 1440,432" stroke="rgba(51, 121, 194, 0.58)" stroke-width="2"></path>
        <path d="M -103.49767072833441,429 C -81.3,351.8 -36.9,57.8 7.50232927166558,43 C 51.9,28.2 74.1,361.8 118.50232927166559,355 C 162.9,348.2 185.1,2 229.5023292716656,9 C 273.9,16 296.1,345.6 340.5023292716656,390 C 384.9,434.4 407.1,226 451.5023292716656,231 C 495.9,236 518.1,453 562.5023292716655,415 C 606.9,377 629.1,18.8 673.5023292716655,41 C 717.9,63.2 740.1,485.2 784.5023292716655,526 C 828.9,566.8 851.1,249.2 895.5023292716655,245 C 939.9,240.8 962.1,541 1006.5023292716655,505 C 1050.9,469 1073.1,78.8 1117.5023292716655,65 C 1161.9,51.2 1184.1,420.4 1228.5023292716655,436 C 1272.9,451.6 1295.1,148.2 1339.5023292716655,143 C 1383.9,137.8 1430.4,397.2 1450.5023292716655,410 C 1470.6,422.8 1442.1,247.6 1440,207" stroke="rgba(51, 121, 194, 0.58)" stroke-width="2"></path>
        <path d="M -51.09726505543702,558 C -28.9,495.2 15.5,265.4 59.90273494456298,244 C 104.3,222.6 126.5,462.8 170.90273494456298,451 C 215.3,439.2 237.5,191.8 281.902734944563,185 C 326.3,178.2 348.5,409.8 392.902734944563,417 C 437.3,424.2 459.5,195.6 503.902734944563,221 C 548.3,246.4 570.5,579 614.902734944563,544 C 659.3,509 681.5,50.4 725.902734944563,46 C 770.3,41.6 792.5,529 836.902734944563,522 C 881.3,515 903.5,7.4 947.902734944563,11 C 992.3,14.6 1014.5,516.6 1058.902734944563,540 C 1103.3,563.4 1125.5,124.4 1169.902734944563,128 C 1214.3,131.6 1236.5,556.8 1280.902734944563,558 C 1325.3,559.2 1347.5,151.6 1391.902734944563,134 C 1436.3,116.4 1493.28,473 1502.902734944563,470 C 1512.52,467 1452.58,189.2 1440,119" stroke="rgba(51, 121, 194, 0.58)" stroke-width="2"></path>
        <path d="M -88.76807327632127,221 C -66.57,255.6 -22.17,434 22.231926723678725,394 C 66.63,354 88.83,20 133.23192672367873,21 C 177.63,22 199.83,394 244.23192672367873,399 C 288.63,404 310.83,17.2 355.2319267236787,46 C 399.63,74.8 421.83,509.8 466.2319267236787,543 C 510.63,576.2 532.83,253.4 577.2319267236787,212 C 621.63,170.6 643.83,334.2 688.2319267236787,336 C 732.63,337.8 754.83,208.2 799.2319267236787,221 C 843.63,233.8 865.83,403.2 910.2319267236787,400 C 954.63,396.8 976.83,198.4 1021.2319267236787,205 C 1065.63,211.6 1087.83,456.8 1132.2319267236787,433 C 1176.63,409.2 1198.83,72 1243.2319267236787,86 C 1287.63,100 1309.83,484.6 1354.2319267236787,503 C 1398.63,521.4 1448.08,173 1465.2319267236787,178 C 1482.39,183 1445.05,458 1440,528" stroke="rgba(51, 121, 194, 0.58)" stroke-width="2"></path>
        <path d="M -170.13294815310906,8 C -147.93,78.4 -103.53,347 -59.132948153109055,360 C -14.73,373 7.47,48.2 51.867051846890945,73 C 96.27,97.8 118.47,459.8 162.86705184689094,484 C 207.27,508.2 229.47,192.2 273.86705184689094,194 C 318.27,195.8 340.47,524.4 384.86705184689094,493 C 429.27,461.6 451.47,49 495.86705184689094,37 C 540.27,25 562.47,393.4 606.867051846891,433 C 651.27,472.6 673.47,231.6 717.867051846891,235 C 762.27,238.4 784.47,491.8 828.867051846891,450 C 873.27,408.2 895.47,4.4 939.867051846891,26 C 984.27,47.6 1006.47,542.8 1050.867051846891,558 C 1095.27,573.2 1117.47,125.6 1161.867051846891,102 C 1206.27,78.4 1228.47,425.6 1272.867051846891,440 C 1317.27,454.4 1350.44,191.2 1383.867051846891,174 C 1417.29,156.8 1428.77,318 1440,354" stroke="rgba(51, 121, 194, 0.58)" stroke-width="2"></path>
        <path d="M -66.4510015376568,277 C -44.25,298.6 0.15,386.8 44.548998462343214,385 C 88.95,383.2 111.15,283.8 155.5489984623432,268 C 199.95,252.2 222.15,336 266.5489984623432,306 C 310.95,276 333.15,99 377.5489984623432,118 C 421.95,137 444.15,383.8 488.5489984623432,401 C 532.95,418.2 555.15,202.2 599.5489984623432,204 C 643.95,205.8 666.15,406 710.5489984623432,410 C 754.95,414 777.15,232.2 821.5489984623432,224 C 865.95,215.8 888.15,385 932.5489984623432,369 C 976.95,353 999.15,146.2 1043.5489984623432,144 C 1087.95,141.8 1110.15,340 1154.5489984623432,358 C 1198.95,376 1221.15,228 1265.5489984623432,234 C 1309.95,240 1332.15,412.8 1376.5489984623432,388 C 1420.95,363.2 1474.86,77.2 1487.5489984623432,110 C 1500.24,142.8 1449.51,463.6 1440,552" stroke="rgba(51, 121, 194, 0.58)" stroke-width="2"></path>
        <path d="M -86.62801760670213,212 C -64.43,274.6 -20.03,546.8 24.37198239329787,525 C 68.77,503.2 90.97,110.2 135.37198239329786,103 C 179.77,95.8 201.97,456 246.37198239329786,489 C 290.77,522 312.97,307.8 357.37198239329786,268 C 401.77,228.2 423.97,334 468.37198239329786,290 C 512.77,246 534.97,4.2 579.3719823932979,48 C 623.77,91.8 645.97,487.8 690.3719823932979,509 C 734.77,530.2 756.97,174 801.3719823932979,154 C 845.77,134 867.97,396 912.3719823932979,409 C 956.77,422 978.97,206.2 1023.3719823932979,219 C 1067.77,231.8 1089.97,510.8 1134.371982393298,473 C 1178.77,435.2 1200.97,24 1245.371982393298,30 C 1289.77,36 1311.97,503.6 1356.371982393298,503 C 1400.77,502.4 1450.65,31 1467.371982393298,27 C 1484.1,23 1445.47,391.8 1440,483" stroke="rgba(51, 121, 194, 0.58)" stroke-width="2"></path>
        <path d="M -39.66490865978997,482 C -17.46,386.4 26.94,-2.4 71.33509134021003,4 C 115.74,10.4 137.94,482.4 182.33509134021003,514 C 226.74,545.6 248.94,181.2 293.33509134021006,162 C 337.74,142.8 359.94,406.2 404.33509134021006,418 C 448.74,429.8 470.94,241 515.33509134021,221 C 559.74,201 581.94,334.6 626.33509134021,318 C 670.74,301.4 692.94,91.6 737.33509134021,138 C 781.74,184.4 803.94,552.4 848.33509134021,550 C 892.74,547.6 914.94,176.6 959.33509134021,126 C 1003.74,75.4 1025.94,292 1070.33509134021,297 C 1114.74,302 1136.94,118.6 1181.33509134021,151 C 1225.74,183.4 1247.94,448 1292.33509134021,459 C 1336.74,470 1358.94,204.4 1403.33509134021,206 C 1447.74,207.6 1507,478.6 1514.33509134021,467 C 1521.67,455.4 1454.87,211.8 1440,148" stroke="rgba(51, 121, 194, 0.58)" stroke-width="2"></path>
        <path d="M -188.5502081300731,72 C -166.35,163.4 -121.95,532.8 -77.5502081300731,529 C -33.15,525.2 -10.95,46.8 33.4497918699269,53 C 77.85,59.2 100.05,518.2 144.4497918699269,560 C 188.85,601.8 211.05,270.6 255.4497918699269,262 C 299.85,253.4 322.05,524.4 366.4497918699269,517 C 410.85,509.6 433.05,220 477.4497918699269,225 C 521.85,230 544.05,559.8 588.4497918699269,542 C 632.85,524.2 655.05,152.2 699.4497918699269,136 C 743.85,119.8 766.05,458.4 810.4497918699269,461 C 854.85,463.6 877.05,140.6 921.4497918699269,149 C 965.85,157.4 988.05,528.8 1032.449791869927,503 C 1076.85,477.2 1099.05,47.8 1143.449791869927,20 C 1187.85,-7.8 1210.05,316.8 1254.449791869927,364 C 1298.85,411.2 1328.34,227.8 1365.449791869927,256 C 1402.56,284.2 1425.09,455.2 1440,505" stroke="rgba(51, 121, 194, 0.58)" stroke-width="2"></path>
        <path d="M -15.575604803403095,83 C 6.62,151.6 51.02,417.4 95.4243951965969,426 C 139.82,434.6 162.02,138.2 206.4243951965969,126 C 250.82,113.8 273.02,378.6 317.4243951965969,365 C 361.82,351.4 384.02,59.2 428.4243951965969,58 C 472.82,56.8 495.02,322.2 539.424395196597,359 C 583.82,395.8 606.02,233.8 650.424395196597,242 C 694.82,250.2 717.02,444.4 761.424395196597,400 C 805.82,355.6 828.02,36.4 872.424395196597,20 C 916.82,3.6 939.02,290.2 983.424395196597,318 C 1027.82,345.8 1050.02,135.4 1094.4243951965968,159 C 1138.82,182.6 1161.02,449.8 1205.4243951965968,436 C 1249.82,422.2 1272.02,83 1316.4243951965968,90 C 1360.82,97 1383.02,450.8 1427.4243951965968,471 C 1471.82,491.2 1535.91,212.6 1538.4243951965968,191 C 1540.94,169.4 1459.68,328.6 1440,363" stroke="rgba(51, 121, 194, 0.58)" stroke-width="2"></path>
    </g>
    <defs>
        <mask id="SvgjsMask1195">
            <rect width="1440" height="560" fill="#ffffff"></rect>
        </mask>
    </defs>
</svg>