<svg xmlns="http://www.w3.org/2000/svg" version="1.1" xmlns:xlink="http://www.w3.org/1999/xlink" xmlns:svgjs="http://svgjs.com/svgjs" width="1440" height="560" preserveAspectRatio="none" viewBox="0 0 1440 560"><g mask="url(&quot;#SvgjsMask1344&quot;)" fill="none"><path d="M -9.121797874211765,475 C 5.28,393.4 34.08,95.4 62.878202125788235,67 C 91.68,38.6 106.08,306 134.87820212578822,333 C 163.68,360 178.08,185.8 206.87820212578822,202 C 235.68,218.2 250.08,427.6 278.8782021257882,414 C 307.68,400.4 322.08,158 350.8782021257882,134 C 379.68,110 394.08,307 422.8782021257882,294 C 451.68,281 466.08,51.4 494.8782021257882,69 C 523.68,86.6 538.08,352.6 566.8782021257882,382 C 595.68,411.4 610.08,191.2 638.8782021257882,216 C 667.68,240.8 682.08,534.2 710.8782021257882,506 C 739.68,477.8 754.08,94.2 782.8782021257882,75 C 811.68,55.8 826.08,416 854.8782021257882,410 C 883.68,404 898.08,34 926.8782021257882,45 C 955.68,56 970.08,433.4 998.8782021257882,465 C 1027.68,496.6 1042.08,219.2 1070.8782021257882,203 C 1099.68,186.8 1114.08,396.8 1142.8782021257882,384 C 1171.68,371.2 1186.08,122 1214.8782021257882,139 C 1243.68,156 1258.08,457 1286.8782021257882,469 C 1315.68,481 1330.08,206.6 1358.8782021257882,199 C 1387.68,191.4 1402.08,434.2 1430.8782021257882,431 C 1459.68,427.8 1501.05,175.4 1502.8782021257882,183 C 1504.7,190.6 1452.58,411.8 1440,469" stroke="rgba(147, 136, 162, 1)" stroke-width="2"></path><path d="M -103.1032788498084,111 C -88.7,153.2 -59.9,343 -31.1032788498084,322 C -2.3,301 12.1,-5.2 40.896721150191595,6 C 69.7,17.2 84.1,359.4 112.8967211501916,378 C 141.7,396.6 156.1,117.4 184.8967211501916,99 C 213.7,80.6 228.1,303.2 256.8967211501916,286 C 285.7,268.8 300.1,-40.4 328.8967211501916,13 C 357.7,66.4 372.1,546 400.8967211501916,553 C 429.7,560 444.1,75.2 472.8967211501916,48 C 501.7,20.8 516.1,382.6 544.8967211501916,417 C 573.7,451.4 588.1,236.8 616.8967211501916,220 C 645.7,203.2 660.1,335.8 688.8967211501916,333 C 717.7,330.2 732.1,203.4 760.8967211501916,206 C 789.7,208.6 804.1,379.4 832.8967211501916,346 C 861.7,312.6 876.1,37.2 904.8967211501916,39 C 933.7,40.8 948.1,351 976.8967211501916,355 C 1005.7,359 1020.1,20.6 1048.8967211501915,59 C 1077.7,97.4 1092.1,518.4 1120.8967211501915,547 C 1149.7,575.6 1164.1,250.8 1192.8967211501915,202 C 1221.7,153.2 1236.1,341.4 1264.8967211501915,303 C 1293.7,264.6 1308.1,-15.2 1336.8967211501915,10 C 1365.7,35.2 1388.28,383.2 1408.8967211501915,429 C 1429.52,474.8 1433.78,277 1440,239" stroke="rgba(147, 136, 162, 1)" stroke-width="2"></path><path d="M -65.8892852873083,457 C -51.49,409.6 -22.69,225 6.110714712691697,220 C 34.91,215 49.31,445.8 78.1107147126917,432 C 106.91,418.2 121.31,157.8 150.1107147126917,151 C 178.91,144.2 193.31,422.4 222.1107147126917,398 C 250.91,373.6 265.31,32.8 294.1107147126917,29 C 322.91,25.2 337.31,333.4 366.1107147126917,379 C 394.91,424.6 409.31,266.8 438.1107147126917,257 C 466.91,247.2 481.31,368.6 510.1107147126917,330 C 538.91,291.4 553.31,25.4 582.1107147126917,64 C 610.91,102.6 625.31,493.2 654.1107147126917,523 C 682.91,552.8 697.31,228.8 726.1107147126917,213 C 754.91,197.2 769.31,457.6 798.1107147126917,444 C 826.91,430.4 841.31,138 870.1107147126917,145 C 898.91,152 913.31,459.6 942.1107147126917,479 C 970.91,498.4 985.31,267 1014.1107147126917,242 C 1042.91,217 1057.31,396 1086.1107147126918,354 C 1114.91,312 1129.31,28.8 1158.1107147126918,32 C 1186.91,35.2 1201.31,326.8 1230.1107147126918,370 C 1258.91,413.2 1273.31,239 1302.1107147126918,248 C 1330.91,257 1345.31,419.8 1374.1107147126918,415 C 1402.91,410.2 1432.93,196.8 1446.1107147126918,224 C 1459.29,251.2 1441.22,485.6 1440,551" stroke="rgba(147, 136, 162, 1)" stroke-width="2"></path><path d="M -133.12998939442153,310 C -118.73,256.6 -89.93,3 -61.12998939442153,43 C -32.33,83 -17.93,515.8 10.870010605578472,510 C 39.67,504.2 54.07,44.2 82.87001060557847,14 C 111.67,-16.2 126.07,336.2 154.87001060557847,359 C 183.67,381.8 198.07,119.8 226.87001060557847,128 C 255.67,136.2 270.07,371.4 298.8700106055785,400 C 327.67,428.6 342.07,244 370.8700106055785,271 C 399.67,298 414.07,561 442.8700106055785,535 C 471.67,509 486.07,165 514.8700106055785,141 C 543.67,117 558.07,433.2 586.8700106055785,415 C 615.67,396.8 630.07,36.8 658.8700106055785,50 C 687.67,63.2 702.07,468.2 730.8700106055785,481 C 759.67,493.8 774.07,105.2 802.8700106055785,114 C 831.67,122.8 846.07,526 874.8700106055785,525 C 903.67,524 918.07,116.8 946.8700106055785,109 C 975.67,101.2 990.07,489.8 1018.8700106055785,486 C 1047.67,482.2 1062.07,92 1090.8700106055785,90 C 1119.67,88 1134.07,446.6 1162.8700106055785,476 C 1191.67,505.4 1206.07,228.4 1234.8700106055785,237 C 1263.67,245.6 1278.07,518.8 1306.8700106055785,519 C 1335.67,519.2 1352.24,271.2 1378.8700106055785,238 C 1405.5,204.8 1427.77,330 1440,353" stroke="rgba(147, 136, 162, 1)" stroke-width="2"></path></g><defs><mask id="SvgjsMask1344"><rect width="1440" height="560" fill="#ffffff"></rect></mask></defs></svg>